<svg width="26" height="20" viewBox="0 0 26 20" fill="none" xmlns="http://www.w3.org/2000/svg">
<path d="M0.8125 0C0.363769 0 0 0.358172 0 0.8C0 1.24183 0.363769 1.6 0.8125 1.6H25.1875C25.6362 1.6 26 1.24183 26 0.8C26 0.358172 25.6362 0 25.1875 0H0.8125Z" fill="#492F11"/>
<path d="M0 9.6C0 9.15817 0.363769 8.8 0.8125 8.8H25.1875C25.6362 8.8 26 9.15817 26 9.6C26 10.0418 25.6362 10.4 25.1875 10.4H0.8125C0.363769 10.4 0 10.0418 0 9.6Z" fill="#492F11"/>
<path d="M0 19.2C0 18.7582 0.363769 18.4 0.8125 18.4H25.1875C25.6362 18.4 26 18.7582 26 19.2C26 19.6418 25.6362 20 25.1875 20H0.8125C0.363769 20 0 19.6418 0 19.2Z" fill="#492F11"/>
</svg>
