<svg width="32" height="32" viewBox="0 0 32 32" fill="none" xmlns="http://www.w3.org/2000/svg">
<path d="M32 16C32 24.8366 24.8366 32 16 32C7.16344 32 0 24.8366 0 16C0 7.16344 7.16344 0 16 0C24.8366 0 32 7.16344 32 16Z" fill="white"/>
<path d="M16.0896 7.2381V23.7899H13.36L8.06338 14.237H7.9789V23.7899H4.7619V7.2381H7.53047L12.7686 16.7748H12.8791V7.2381H16.0896Z" fill="#492F11"/>
<path d="M29.7199 16.9175L29.8166 16.2944L29.1882 16.3403C28.1075 16.4329 27.0203 16.2693 26.0148 15.8627C24.9635 15.4147 23.8049 15.2809 22.6791 15.4775C22.0855 15.5695 21.5242 15.8085 21.0465 16.1727C20.5688 16.537 20.1898 17.015 19.944 17.5631C19.626 18.2711 19.4972 19.0496 19.5703 19.8223C19.8268 19.4958 20.1074 19.1892 20.41 18.9049C21.0841 18.3077 21.9095 17.9075 22.7959 17.7482C23.6502 17.5933 24.5289 17.6406 25.3617 17.8863C24.5301 17.8053 23.6907 17.8983 22.897 18.1594C22.5149 18.2827 22.15 18.4543 21.8112 18.6699C21.4841 18.8884 21.1807 19.1402 20.9057 19.4215C20.3716 20.0197 19.9284 20.6934 19.5906 21.4208C19.241 22.1479 18.959 22.9055 18.7481 23.6842L19.7137 23.9296C19.9373 23.24 20.2096 22.5672 20.5287 21.9163C21.1066 22.4482 21.811 22.8236 22.5748 23.0068C23.2849 23.1868 24.0239 23.2225 24.748 23.112C28.821 22.4767 29.6647 17.1347 29.7199 16.9175Z" fill="#492F11"/>
</svg>
