<svg width="58" height="52" viewBox="0 0 58 52" fill="none" xmlns="http://www.w3.org/2000/svg">
<g clip-path="url(#clip0_243_1965)">
<path d="M16.8125 16C16.3638 16 16 16.3582 16 16.8C16 17.2418 16.3638 17.6 16.8125 17.6H41.1875C41.6362 17.6 42 17.2418 42 16.8C42 16.3582 41.6362 16 41.1875 16H16.8125Z" fill="#492F11"/>
<path d="M16 25.6C16 25.1582 16.3638 24.8 16.8125 24.8H41.1875C41.6362 24.8 42 25.1582 42 25.6C42 26.0418 41.6362 26.4 41.1875 26.4H16.8125C16.3638 26.4 16 26.0418 16 25.6Z" fill="#492F11"/>
<path d="M16 35.2C16 34.7582 16.3638 34.4 16.8125 34.4H41.1875C41.6362 34.4 42 34.7582 42 35.2C42 35.6418 41.6362 36 41.1875 36H16.8125C16.3638 36 16 35.6418 16 35.2Z" fill="#492F11"/>
</g>
<defs>
<clipPath id="clip0_243_1965">
<rect width="26" height="20" fill="white" transform="translate(16 16)"/>
</clipPath>
</defs>
</svg>
