<svg width="139" height="105" viewBox="0 0 139 105" fill="none" xmlns="http://www.w3.org/2000/svg">
<path d="M59.4705 0V86.8968H45.1402L17.3328 36.7445H16.8892V86.8968H0V0H14.5349L42.0353 50.0675H42.6154V0H59.4705Z" fill="#FFFFFF" fill-opacity="0.3"/>
<g clip-path="url(#clip0_131_790)">
<path d="M131.03 50.8167L131.537 47.5455L128.238 47.7864C122.564 48.2727 116.856 47.4136 111.578 45.2791C106.058 42.927 99.9755 42.2247 94.0654 43.257C90.9486 43.7397 88.0021 44.9944 85.4941 46.9068C82.9862 48.8192 80.9964 51.3285 79.7059 54.2063C78.0363 57.9234 77.3603 62.0102 77.7439 66.0669C79.0904 64.3531 80.564 62.7431 82.1522 61.2506C85.6913 58.1153 90.0249 56.0145 94.6785 55.1783C99.1636 54.3648 103.777 54.6131 108.149 55.9033C103.783 55.4778 99.3761 55.966 95.2092 57.3371C93.2029 57.9844 91.2873 58.885 89.5089 60.017C87.7917 61.1638 86.1985 62.4863 84.755 63.9629C81.9505 67.1037 79.6241 70.6405 77.8506 74.4594C76.0152 78.2763 74.5345 82.2539 73.4274 86.342L78.4969 87.6305C79.6707 84.0101 81.1005 80.4778 82.7755 77.0603C85.8097 79.8532 89.5074 81.8241 93.5176 82.7859C97.2456 83.7306 101.125 83.9183 104.927 83.3379C126.31 80.0025 130.74 51.9573 131.03 50.8167Z" fill="#FFFFFF" fill-opacity="0.3"/>
</g>
<defs>
<clipPath id="clip0_131_790">
<rect width="62.7687" height="62.7687" fill="white"  transform="translate(77.4614 28) rotate(14.2602)"/>
</clipPath>
</defs>
</svg>
