<svg width="206" height="29" viewBox="0 0 206 29" fill="none" xmlns="http://www.w3.org/2000/svg">
<path fill-rule="evenodd" clip-rule="evenodd" d="M19.0368 0V27.8162H14.4496L5.54831 11.7621H5.40633V27.8162H0V0H4.65272L13.4558 16.0269H13.6414V0H19.0368ZM27.9149 27.8162H22.1044L29.6514 0H36.849L44.396 27.8162H38.5855L37.111 21.9759H29.3863L27.9149 27.8162ZM33.3321 7.00837L35.8217 16.869H30.673L33.1574 7.00837H33.3321ZM44.2395 0V5.46001H51.0329V27.8162H56.3628V5.46001H63.1453V0H44.2395ZM79.9581 0H85.3535V17.942C85.3535 20.0155 84.9566 21.8219 84.163 23.3612C83.3693 24.8915 82.2626 26.0777 80.8427 26.9197C79.4229 27.7528 77.7737 28.1693 75.8951 28.1693C73.9947 28.1693 72.3346 27.7528 70.9148 26.9197C69.4949 26.0777 68.3918 24.8915 67.6054 23.3612C66.8191 21.8219 66.4259 20.0155 66.4259 17.942V0H71.8322V17.3579C71.8322 18.3177 71.9997 19.1734 72.3346 19.925C72.6768 20.6765 73.1537 21.2651 73.7654 21.6906C74.377 22.1162 75.0869 22.329 75.8951 22.329C76.7034 22.329 77.4096 22.1162 78.014 21.6906C78.6256 21.2651 79.1025 20.6765 79.4447 19.925C79.787 19.1734 79.9581 18.3177 79.9581 17.3579V0ZM89.3822 0V27.8162H94.7885V18.2951H97.5576L101.647 27.8162H107.545L102.909 17.2339C104.141 16.5282 105.093 15.5101 105.765 14.1797C106.442 12.8306 106.781 11.1917 106.781 9.263C106.781 7.36151 106.449 5.71807 105.787 4.33269C105.124 2.93826 104.181 1.8698 102.958 1.12732C101.742 0.375772 100.297 0 98.6221 0H89.3822ZM94.7885 12.9981H97.4535C98.269 12.9981 98.9498 12.8668 99.4959 12.6042C100.049 12.3326 100.468 11.9251 100.752 11.3818C101.036 10.8295 101.178 10.1232 101.178 9.263C101.178 8.4028 101.036 7.692 100.752 7.13061C100.468 6.56016 100.049 6.13459 99.4959 5.85389C98.9425 5.56414 98.2617 5.41926 97.4535 5.41926H94.7885V12.9981ZM115.225 27.8162H109.414L116.961 0H124.159L131.706 27.8162H125.895L124.421 21.9759H116.696L115.225 27.8162ZM120.642 7.00837L123.131 16.869H117.983L120.467 7.00837H120.642ZM134.754 0V27.8162H149.466V22.3562H140.161V0H134.754ZM152.905 27.8162V0H158.311V22.3562H167.617V27.8162H152.905ZM172.527 0H166.488L174.668 18.526V27.8162H180.042V18.526L188.222 0H182.182L177.453 11.6399H177.257L172.527 0ZM206 15.5397L205.838 16.5868C205.833 16.6059 205.824 16.6486 205.812 16.7126C205.581 17.8701 203.969 25.9852 197.482 26.997C196.265 27.1828 195.023 27.1228 193.83 26.8203C192.546 26.5125 191.362 25.8816 190.391 24.9876C189.855 26.0815 189.397 27.2122 189.022 28.3711L187.399 27.9587C187.753 26.6501 188.227 25.3768 188.815 24.155C189.382 22.9325 190.127 21.8004 191.025 20.795C191.487 20.3223 191.997 19.899 192.547 19.5319C193.116 19.1695 193.729 18.8812 194.371 18.674C195.705 18.2351 197.116 18.0788 198.513 18.2151C197.114 17.8021 195.637 17.7226 194.201 17.983C192.712 18.2507 191.325 18.9231 190.192 19.9268C189.683 20.4045 189.212 20.9199 188.781 21.4685C188.658 20.1699 188.874 18.8617 189.409 17.6719C189.822 16.7507 190.459 15.9474 191.261 15.3352C192.064 14.7231 193.007 14.3214 194.005 14.1669C195.897 13.8365 197.844 14.0613 199.611 14.8142C201.301 15.4975 203.128 15.7725 204.944 15.6168L206 15.5397Z" fill="#492F11"/>
</svg>
