<svg width="84" height="84" viewBox="0 0 84 84" fill="none" xmlns="http://www.w3.org/2000/svg">
<path d="M0.333252 42C0.333252 50.2409 2.77696 58.2967 7.35535 65.1488C11.9337 72.0008 18.4412 77.3413 26.0548 80.495C33.6684 83.6486 42.0461 84.4738 50.1287 82.8661C58.2112 81.2583 65.6355 77.29 71.4627 71.4628C77.2899 65.6356 81.2583 58.2113 82.866 50.1288C84.4737 42.0462 83.6486 33.6685 80.4949 26.0549C77.3412 18.4413 72.0007 11.9338 65.1487 7.35544C58.2966 2.77705 50.2408 0.333344 41.9999 0.333344C36.5282 0.333344 31.11 1.41108 26.0548 3.50503C20.9995 5.59898 16.4062 8.66812 12.5371 12.5372C4.72312 20.3512 0.333252 30.9493 0.333252 42ZM56.9999 49.1667C58.0824 46.9318 58.6519 44.4832 58.6666 42C58.6666 37.5797 56.9106 33.3405 53.785 30.2149C50.6594 27.0893 46.4202 25.3333 41.9999 25.3333V33.6667L28.9999 21.1667L41.9999 8.66668V17C48.6303 17 54.9892 19.6339 59.6776 24.3223C64.366 29.0107 66.9999 35.3696 66.9999 42C67.0083 46.7103 65.6633 51.3238 63.1249 55.2917M16.9999 42C16.9915 37.2897 18.3365 32.6762 20.8749 28.7083L26.9999 34.8333C25.9174 37.0682 25.348 39.5168 25.3333 42C25.3333 46.4203 27.0892 50.6595 30.2148 53.7851C33.3404 56.9107 37.5796 58.6667 41.9999 58.6667V50.3333L54.4999 62.8333L41.9999 75.3333V67C35.3695 67 29.0107 64.3661 24.3222 59.6777C19.6338 54.9893 16.9999 48.6304 16.9999 42Z" fill="#D9D9D9"/>
</svg>
