<svg width="32" height="32" viewBox="0 0 32 32" fill="none" xmlns="http://www.w3.org/2000/svg">
<path fill-rule="evenodd" clip-rule="evenodd" d="M16 32C24.8366 32 32 24.8366 32 16C32 7.16344 24.8366 0 16 0C7.16344 0 0 7.16344 0 16C0 24.8366 7.16344 32 16 32ZM29.8494 20.8112C30.3729 19.3041 30.6573 17.6853 30.6573 16C30.6573 14.6385 30.4717 13.3205 30.1244 12.0696C30.0797 12.079 30.0335 12.0839 29.986 12.0839H22.9176C23.1409 13.3893 23.2727 14.8037 23.2727 16.3357C23.2727 17.988 23.1178 19.4718 22.8595 20.8112H29.8494ZM21.9301 16.3357C21.9301 14.7894 21.7919 13.3774 21.5588 12.0839H10.4412C10.2081 13.3774 10.0699 14.7894 10.0699 16.3357C10.0699 18.0161 10.2314 19.494 10.4998 20.8112H21.5002C21.7686 19.494 21.9301 18.0161 21.9301 16.3357ZM9.1405 20.8112H2.15055C1.62708 19.3041 1.34266 17.6853 1.34266 16C1.34266 14.6385 1.52828 13.3205 1.87559 12.0696C1.92025 12.079 1.96654 12.0839 2.01399 12.0839H9.08242C8.85914 13.3893 8.72727 14.8037 8.72727 16.3357C8.72727 17.988 8.88225 19.4718 9.1405 20.8112ZM10.7256 10.7413H21.2744C20.4642 7.42023 19.0568 4.94731 17.9457 2.99502C17.6147 2.41338 17.3099 1.87793 17.0551 1.38005C16.7067 1.35526 16.3548 1.34266 16 1.34266C15.6452 1.34266 15.2933 1.35526 14.9449 1.38005C14.6901 1.87793 14.3853 2.41336 14.0543 2.99501C12.9432 4.9473 11.5358 7.42023 10.7256 10.7413ZM13.3015 1.59054C13.1874 1.79301 13.0667 2.00415 12.9409 2.22425C11.7911 4.23536 10.2132 6.99544 9.35144 10.7413H2.31427C4.11575 6.05595 8.25397 2.5299 13.3015 1.59054ZM9.44436 22.1538C10.26 25.284 11.6176 27.5508 12.6902 29.3415C12.916 29.7187 13.1293 30.0747 13.3221 30.4133C8.59223 29.5401 4.65829 26.396 2.69319 22.1538H9.44436ZM14.9581 30.6209C14.6191 29.9245 14.196 29.216 13.7415 28.4548C12.7311 26.763 11.5653 24.8109 10.8234 22.1538H21.1766C20.4347 24.8109 19.2689 26.763 18.2585 28.4548C17.804 29.216 17.3809 29.9245 17.0419 30.6209C16.6978 30.6451 16.3503 30.6573 16 30.6573C15.6497 30.6573 15.3022 30.6451 14.9581 30.6209ZM29.6857 10.7413H22.6486C21.7868 6.99544 20.2089 4.23536 19.0591 2.22425C18.9333 2.00416 18.8126 1.793 18.6985 1.59054C23.746 2.5299 27.8843 6.05595 29.6857 10.7413ZM29.3068 22.1538C27.3417 26.396 23.4078 29.5401 18.6779 30.4133C18.8707 30.0747 19.084 29.7187 19.3099 29.3415C20.3824 27.5508 21.74 25.284 22.5556 22.1538H29.3068Z" fill="#492F11"/>
</svg>
