<svg width="52" height="32" viewBox="0 0 52 32" fill="none" xmlns="http://www.w3.org/2000/svg">
<g clip-path="url(#clip0_120_139)">
<path fill-rule="evenodd" clip-rule="evenodd" d="M0 3.032C0 1.3568 1.378 0 3.07938 0H48.9206C50.622 0 52 1.3568 52 3.032V28.968C52 29.7721 51.6756 30.5433 51.0981 31.1119C50.5206 31.6806 49.7373 32 48.9206 32H3.07938C2.26267 32 1.47942 31.6806 0.901928 31.1119C0.324433 30.5433 0 29.7721 0 28.968L0 3.032Z" fill="#007ECD"/>
<path fill-rule="evenodd" clip-rule="evenodd" d="M45.6788 21.7456H43.3956V20.7552H45.3879C45.3879 20.7552 46.1143 20.8288 46.1143 20.4144C46.1143 20.0272 45.0288 20.0576 45.0288 20.0576C45.0288 20.0576 43.2575 20.1888 43.2575 18.7776C43.2575 17.3712 44.8581 17.4512 44.8581 17.4512H47.3119V18.456H45.3375C45.3375 18.456 44.6534 18.3392 44.6534 18.7616C44.6534 19.1168 45.5845 19.0656 45.5845 19.0656C45.5845 19.0656 47.5426 18.944 47.5426 20.2384C47.5426 21.6272 46.2816 21.752 45.8331 21.752C45.7373 21.752 45.6788 21.7456 45.6788 21.7456ZM34.2891 21.752V17.4592H38.2899V18.456H35.5794V19.1168H38.2233V20.0928H35.5794V20.8224H38.2899V21.752H34.2891ZM41.1564 21.7456H38.8733V20.7552H40.8736C40.8736 20.7552 41.5919 20.8288 41.5919 20.4144C41.5919 20.0272 40.5064 20.0576 40.5064 20.0576C40.5064 20.0576 38.7351 20.1888 38.7351 18.7776C38.7351 17.3712 40.3341 17.4512 40.3341 17.4512H42.7993V18.456H40.8151C40.8151 18.456 40.1294 18.3392 40.1294 18.7616C40.1294 19.1168 41.0605 19.0656 41.0605 19.0656C41.0605 19.0656 43.0203 18.944 43.0203 20.2384C43.0203 21.6272 41.7593 21.752 41.3108 21.752C41.2133 21.752 41.1564 21.7456 41.1564 21.7456ZM23.8566 21.7536H22.737L21.3769 20.4784L20.0103 21.7536H15.2376V17.4448H19.9063L21.3769 18.8128L22.8556 17.4528H23.8404V17.4448H26.9523C26.9523 17.4448 28.5773 17.2912 28.5773 18.7088C28.5773 19.976 28.0378 20.3696 26.3803 20.3696H25.1225V21.7536H23.8566ZM22.2495 19.6352L23.8404 21.1344V18.1424L22.2495 19.6352ZM16.5295 20.8208H19.2303L20.4978 19.6368L19.2303 18.456H16.5295V19.1184H19.162V20.0944H16.5295V20.8208ZM25.1225 19.248H26.4485C26.8336 19.248 27.1489 19.0672 27.1489 18.8416C27.1489 18.6176 26.8336 18.4336 26.4485 18.4336H25.1225V19.2496V19.248ZM32.409 21.76V20.9232C32.409 20.9232 32.3554 20.2672 31.5526 20.2672H30.3046V21.76H29.0209V17.4592H32.1344C32.1344 17.4592 33.7594 17.2912 33.7594 18.7184C33.7594 19.4608 33.0411 19.7216 33.0411 19.7216C33.0411 19.7216 33.657 19.9696 33.657 20.6976V21.76H32.409ZM30.3046 19.256H31.6306C32.0158 19.256 32.331 19.0752 32.331 18.848C32.331 18.624 32.0158 18.4416 31.6306 18.4416H30.3046V19.2576V19.256ZM29.3378 15.872H30.628V11.5568H29.3378V15.872ZM19.4025 15.8576V11.5568H23.4033V12.5616H20.6928V13.2224H23.3366V14.1984H20.6928V14.9264H23.4033V15.8576H19.4025ZM17.3924 15.8576V12.888L15.7853 15.8576H14.7339L13.117 12.9024V15.8576H10.5869L10.1416 14.9552H7.79838L7.345 15.8576H5.94263L8.07138 11.5568H9.87513L11.8251 15.5088V11.5568H13.8531L15.2636 14.2288L16.666 11.5568H18.6924V15.856H17.3924V15.8576ZM8.346 13.8576H9.594L8.97 12.576L8.346 13.856V13.8576ZM42.5913 15.856L40.56 12.9824V15.8576H38.0445L37.5895 14.9552H35.2479L34.8026 15.8576H32.7925C32.7925 15.8576 31.0668 15.6464 31.0668 13.8272C31.0668 11.44 33.0249 11.5344 33.0915 11.52L34.6743 11.5568V12.5248L33.3743 12.5392C33.3743 12.5392 32.5293 12.5392 32.4253 13.4784C32.4139 13.5872 32.4074 13.6848 32.409 13.7776C32.4139 15.2304 33.891 14.7792 33.9398 14.7664L35.529 11.5568H37.3246L39.2486 15.4576V11.5568H41.0605L43.0706 14.3888V11.5568H44.3625V15.856H42.5913ZM35.7939 13.856H37.0435L36.426 12.5744L35.7939 13.8544V13.856ZM27.4576 15.8592V15.0208C27.4576 15.0208 27.4056 14.3664 26.6013 14.3664H25.3533V15.8592H24.0695V11.5584H27.183C27.183 11.5584 28.808 11.3904 28.808 12.8176C28.808 13.56 28.0898 13.8224 28.0898 13.8224C28.0898 13.8224 28.7138 14.0704 28.7138 14.7984V15.8608H27.456L27.4576 15.8592ZM25.3533 13.352H26.6793C27.0644 13.352 27.3796 13.1712 27.3796 12.9456C27.3796 12.72 27.0644 12.5376 26.6793 12.5376H25.3533V13.3536V13.352Z" fill="white"/>
</g>
<defs>
<clipPath id="clip0_120_139">
<rect width="52" height="32" rx="4" fill="white"/>
</clipPath>
</defs>
</svg>
