<svg width="52" height="32" viewBox="0 0 52 32" fill="none" xmlns="http://www.w3.org/2000/svg">
<g clip-path="url(#clip0_120_141)">
<path d="M47.3428 0H4.12425C3.97313 0.0016 3.82362 0.0032 3.67412 0.008C3.34912 0.016 3.01925 0.0352 2.69588 0.0896C2.36925 0.1472 2.06375 0.24 1.76638 0.384C1.18312 0.670628 0.705747 1.13002 0.401375 1.6976C0.25274 1.97849 0.148619 2.28011 0.092625 2.592C0.0398353 2.90244 0.0115839 3.21645 0.008125 3.5312C0.00325 3.6752 0.001625 3.8192 0 3.9632V28.0256C0.001625 28.1696 0.00325 28.3136 0.008125 28.4576C0.0120949 28.7724 0.0408898 29.0864 0.09425 29.3968C0.200672 30.0273 0.509325 30.6076 0.975 31.0528C1.20738 31.2768 1.47388 31.4624 1.76638 31.6048C2.06375 31.7504 2.36762 31.8432 2.69588 31.8992C3.01925 31.9552 3.3475 31.9744 3.67412 31.9824L4.12425 31.9888H47.8758C48.0252 31.9888 48.1748 31.9856 48.3259 31.9824C48.6509 31.9744 48.9808 31.9552 49.3041 31.8992C49.6269 31.8463 49.9401 31.7471 50.2336 31.6048C50.8172 31.3194 51.2948 30.8604 51.5986 30.2928C51.7514 30.0048 51.8472 29.7136 51.9058 29.3968C51.9642 29.088 51.9821 28.7728 51.9919 28.4592C51.9951 28.3152 51.9984 28.1712 51.9984 28.0272L52 27.5152V3.9632L51.9919 3.5312C51.9879 3.21641 51.9591 2.90241 51.9058 2.592C51.8249 2.11952 51.631 1.67279 51.3399 1.28882C51.0488 0.904843 50.6691 0.594674 50.232 0.384C49.9389 0.241982 49.6263 0.142805 49.3041 0.0896C48.9805 0.0389043 48.6535 0.0116312 48.3259 0.008C48.1759 0.00388609 48.0258 0.0012193 47.8758 0L47.3428 0Z" fill="white"/>
<path d="M47.3428 1.06567H47.8693C48.0107 1.06727 48.1537 1.06887 48.2967 1.07367C48.5453 1.08007 48.8362 1.09287 49.1076 1.13927C49.3432 1.18087 49.5414 1.24167 49.7316 1.33447C50.1082 1.51924 50.4163 1.81589 50.6123 2.18247C50.7082 2.36327 50.7716 2.55207 50.8138 2.78087C50.8626 3.03847 50.8756 3.32007 50.8837 3.56007L50.8902 3.96967V28.0225C50.8902 28.1585 50.8869 28.2945 50.8837 28.4305C50.8756 28.6705 50.8626 28.9505 50.8138 29.2113C50.7647 29.5203 50.6404 29.813 50.4513 30.0643C50.2623 30.3156 50.0142 30.5181 49.7283 30.6545C49.5333 30.7491 49.3253 30.8148 49.1108 30.8497C48.843 30.8908 48.5726 30.9133 48.3016 30.9169C48.1569 30.9201 48.0139 30.9217 47.8677 30.9217H4.1292C3.9862 30.9217 3.8432 30.9185 3.70507 30.9169C3.43297 30.9133 3.16146 30.8909 2.89257 30.8497C2.67591 30.8154 2.46561 30.7496 2.26857 30.6545C1.98389 30.5161 1.73704 30.3126 1.54873 30.0609C1.36043 29.8092 1.23615 29.5168 1.18632 29.2081C1.14308 28.951 1.11972 28.691 1.11645 28.4305L1.11157 28.0209V3.96967C1.11157 3.83207 1.1132 3.69607 1.11645 3.56007C1.12457 3.32007 1.13757 3.04167 1.18632 2.77927C1.2342 2.46987 1.35792 2.17662 1.54677 1.92488C1.73562 1.67314 1.98393 1.47049 2.2702 1.33447C2.46032 1.24167 2.65695 1.18087 2.89257 1.13927C3.16395 1.09127 3.45482 1.08007 3.70507 1.07367C3.84645 1.06887 3.98945 1.06727 4.13082 1.06727H47.3428V1.06567Z" fill="white"/>
<path d="M14.196 10.76C14.6412 10.224 14.9435 9.50564 14.8622 8.77124C14.2122 8.80324 13.416 9.18404 12.9561 9.72004C12.5417 10.1792 12.1761 10.928 12.272 11.6304C13.0032 11.6912 13.7345 11.2784 14.196 10.76ZM14.8541 11.768C13.7914 11.7072 12.8879 12.3472 12.3809 12.3472C11.8739 12.3472 11.0971 11.7984 10.257 11.8144C9.71437 11.8249 9.18375 11.9735 8.71675 12.2458C8.24975 12.518 7.86226 12.9046 7.59199 13.368C6.45124 15.2592 7.29136 18.064 8.40124 19.6048C8.94074 20.3664 9.59074 21.2048 10.4471 21.1744C11.2547 21.144 11.5716 20.672 12.5564 20.672C13.5379 20.672 13.8239 21.1744 14.6802 21.16C15.5675 21.144 16.1232 20.3968 16.6627 19.6352C17.2802 18.7664 17.5337 17.928 17.55 17.8816C17.5337 17.8656 15.8372 17.2416 15.8226 15.3664C15.8064 13.7952 17.1551 13.0496 17.2169 13.0032C16.4564 11.92 15.2669 11.7984 14.8541 11.768ZM24.1052 9.64324C26.4144 9.64324 28.0215 11.1728 28.0215 13.4C28.0215 15.6352 26.3802 17.1728 24.0484 17.1728H21.4906V21.08H19.643V9.64324H24.1052ZM21.4906 15.6832H23.6096C25.2184 15.6832 26.1349 14.8512 26.1349 13.408C26.1349 11.9664 25.2184 11.1408 23.6194 11.1408H21.4906V15.6832ZM28.5074 18.7104C28.5074 17.2512 29.6692 16.3568 31.7314 16.2464L34.1071 16.1104V15.4688C34.1071 14.5408 33.4555 13.9872 32.3667 13.9872C31.3349 13.9872 30.693 14.4624 30.5354 15.208H28.8535C28.951 13.7008 30.2884 12.592 32.4334 12.592C34.5361 12.592 35.88 13.6624 35.88 15.3344V21.08H34.1737V19.7088H34.1315C33.6277 20.6368 32.5309 21.2224 31.3934 21.2224C29.6936 21.2224 28.5074 20.208 28.5074 18.7104ZM34.1071 17.9584V17.2992L31.9702 17.4272C30.9059 17.4976 30.3046 17.9504 30.3046 18.6624C30.3046 19.392 30.9319 19.8672 31.8874 19.8672C33.1337 19.8672 34.1071 19.0432 34.1071 17.9568V17.9584ZM37.492 24.1472V22.7616C37.6236 22.7936 37.921 22.7936 38.0689 22.7936C38.8944 22.7936 39.3396 22.4592 39.6126 21.6032C39.6126 21.5872 39.7686 21.096 39.7686 21.088L36.634 12.7424H38.5645L40.7582 19.5264H40.7907L42.9845 12.7424H44.8662L41.6162 21.5168C40.8736 23.5376 40.0156 24.1888 38.2184 24.1888C38.0705 24.1888 37.6236 24.1728 37.492 24.1472Z" fill="black"/>
</g>
<defs>
<clipPath id="clip0_120_141">
<rect width="52" height="32" rx="4" fill="white"/>
</clipPath>
</defs>
</svg>
