<svg width="52" height="32" viewBox="0 0 52 32" fill="none" xmlns="http://www.w3.org/2000/svg">
<g clip-path="url(#clip0_120_142)">
<path d="M47.0064 0H4.99362C2.236 0 0 2.4768 0 5.5312V26.4688C0 29.5248 2.236 32 4.99362 32H47.0064C49.764 32 52 29.5232 52 26.4688V5.5312C52 2.4752 49.764 0 47.0064 0Z" fill="#FFB3C7"/>
<path d="M47.5004 18.4064C47.1679 18.408 46.8498 18.5396 46.6158 18.7721C46.3818 19.0046 46.2511 19.319 46.2524 19.6464C46.2524 20.3328 46.8114 20.888 47.5004 20.888C47.6651 20.8873 47.8281 20.8547 47.9801 20.7921C48.132 20.7294 48.27 20.6379 48.386 20.5228C48.502 20.4076 48.5939 20.2711 48.6564 20.121C48.7188 19.9709 48.7506 19.8102 48.75 19.648C48.7506 19.4857 48.7188 19.325 48.6564 19.1749C48.5939 19.0248 48.502 18.8883 48.386 18.7731C48.27 18.658 48.132 18.5665 47.9801 18.5038C47.8281 18.4412 47.6651 18.4086 47.5004 18.408V18.4064ZM43.3907 17.4464C43.3907 16.5088 42.5847 15.7472 41.587 15.7472C40.5925 15.7472 39.7849 16.5088 39.7849 17.4464C39.7849 18.3856 40.5925 19.1456 41.5886 19.1456C42.5847 19.1456 43.3924 18.3856 43.3924 17.4464H43.3907ZM43.3972 14.144H45.3879V20.7488H43.3972V20.3264C42.8178 20.7203 42.1303 20.9313 41.4261 20.9312C40.9633 20.9293 40.5055 20.8376 40.0787 20.6614C39.6519 20.4853 39.2645 20.228 38.9387 19.9044C38.6129 19.5808 38.355 19.1972 38.1798 18.7754C38.0047 18.3536 37.9156 17.902 37.9177 17.4464C37.9177 15.5216 39.4875 13.9616 41.4261 13.9616C42.1574 13.9616 42.835 14.1856 43.3972 14.5664V14.144ZM27.4722 15.0048V14.144H25.4345V20.7488H27.4771V17.664C27.4771 16.624 28.6114 16.064 29.3995 16.064H29.4222V14.144C28.6146 14.144 27.872 14.488 27.4722 15.0032V15.0048ZM22.3974 17.4464C22.3974 16.5088 21.5897 15.7472 20.5936 15.7472C19.5975 15.7472 18.7899 16.5088 18.7899 17.4464C18.7899 18.3856 19.5975 19.1456 20.5936 19.1456C21.5897 19.1456 22.3974 18.3856 22.3974 17.4464ZM22.4039 14.144H24.3945V20.7488H22.4039V20.3264C21.824 20.7206 21.1358 20.9316 20.4311 20.9312C19.9685 20.9291 19.5108 20.8373 19.0842 20.661C18.6575 20.4847 18.2704 20.2275 17.9447 19.9039C17.6191 19.5803 17.3614 19.1967 17.1863 18.775C17.0112 18.3534 16.9222 17.9019 16.9244 17.4464C16.9244 15.5216 18.4941 13.9616 20.4311 13.9616C21.1624 13.9616 21.8416 14.1856 22.4039 14.5664V14.144ZM34.3818 13.968C33.5855 13.968 32.8347 14.2128 32.331 14.888V14.1456H30.3501V20.7488H32.3554V17.2768C32.3554 16.2736 33.033 15.7824 33.8504 15.7824C34.7246 15.7824 35.2267 16.3008 35.2267 17.264V20.7488H37.2141V16.5488C37.2141 15.0128 35.9856 13.9664 34.3818 13.9664V13.968ZM14.0254 20.7472H16.107V11.2H14.0254V20.7472ZM4.875 20.752H7.08012V11.2H4.875V20.752ZM12.5889 11.2C12.594 12.2052 12.3975 13.2016 12.0104 14.1319C11.6233 15.0622 11.0534 15.908 10.3334 16.6208L13.3819 20.752H10.66L7.345 16.2624L8.20137 15.6256C8.89771 15.1101 9.46197 14.4415 9.84908 13.673C10.2362 12.9046 10.4354 12.0577 10.4309 11.2H12.5889Z" fill="#0A0B09"/>
</g>
<defs>
<clipPath id="clip0_120_142">
<rect width="52" height="32" rx="4" fill="white"/>
</clipPath>
</defs>
</svg>
