<svg width="52" height="32" viewBox="0 0 52 32" fill="none" xmlns="http://www.w3.org/2000/svg">
<g clip-path="url(#clip0_120_140)">
<path d="M0 0H52V32H0V0Z" fill="white"/>
<path d="M20.969 23.7408H31.031V8.24805H20.969V23.7424V23.7408Z" fill="#F06022"/>
<path d="M22.0089 15.9999C22.0053 14.5019 22.3635 13.0245 23.0538 11.6895C23.7542 10.3378 24.7625 9.1638 25.9999 8.25914C23.9664 6.75457 21.4555 6.01158 18.9165 6.16314C16.3837 6.30216 13.9851 7.32948 12.1549 9.05914C11.1955 9.96067 10.4292 11.0422 9.90104 12.2399C9.38008 13.4266 9.11133 14.7056 9.11133 15.9983C9.11133 17.2911 9.38008 18.5701 9.90104 19.7567C10.4243 20.9487 11.1897 22.0287 12.1549 22.9407C13.9851 24.6704 16.3837 25.6977 18.9165 25.8367C21.4555 25.9883 23.9664 25.2453 25.9999 23.7407C24.7684 22.8297 23.7646 21.6536 23.0652 20.3023C22.3759 18.9688 22.0141 17.4946 22.0089 15.9983V15.9999Z" fill="#EA1D25"/>
<path d="M42.9 15.9999C42.9 18.6079 41.808 21.1071 39.858 22.9535C38.0145 24.6652 35.6151 25.6793 33.085 25.8159C30.5492 25.9643 28.0411 25.2297 26 23.7407C27.2288 22.8282 28.2308 21.6524 28.9299 20.3023C29.6194 18.9692 29.9828 17.4959 29.991 15.9999C29.9919 14.5023 29.6327 13.0258 28.9429 11.6911C28.2424 10.3399 27.2354 9.16558 26 8.25908C28.033 6.74874 30.546 6.00109 33.0882 6.15028C35.624 6.28742 38.0258 7.31488 39.858 9.04628C40.8206 9.94856 41.5888 11.0325 42.1167 12.2335C42.6367 13.4287 42.9049 14.7071 42.9 15.9999Z" fill="#F79D1D"/>
</g>
<defs>
<clipPath id="clip0_120_140">
<rect width="52" height="32" rx="4" fill="white"/>
</clipPath>
</defs>
</svg>
