<svg width="52" height="32" viewBox="0 0 52 32" fill="none" xmlns="http://www.w3.org/2000/svg">
<g clip-path="url(#clip0_120_138)">
<path d="M0 0H52V32H0V0Z" fill="#293381"/>
<path fill-rule="evenodd" clip-rule="evenodd" d="M46.4143 22.1627H43.3151C43.1945 21.7111 43.0739 21.281 43.0016 20.8394C43.0056 20.7618 42.9902 20.6845 42.9567 20.6137C42.9231 20.5429 42.8724 20.4807 42.8086 20.4322C42.7493 20.3845 42.6796 20.3498 42.6046 20.3307C42.5295 20.3116 42.4509 20.3086 42.3745 20.3218C41.2168 20.3548 40.0712 20.3218 38.9135 20.3548C38.7849 20.3834 38.6642 20.4376 38.5593 20.5139C38.4555 20.5896 38.3706 20.686 38.3105 20.7964C38.0879 21.2399 37.8945 21.6962 37.7317 22.1627H34.2225C34.319 21.9204 34.3913 21.6996 34.4878 21.5018L39.1788 11.0026C39.2949 10.6313 39.5496 10.3101 39.8963 10.0922C40.2445 9.87568 40.6651 9.77675 41.0842 9.81116C41.9283 9.84414 42.7724 9.81116 43.6648 9.81116L46.4143 22.1627ZM4.0625 9.91009C4.25545 9.86708 4.46045 9.83267 4.6534 9.80973H9.70619C10.1403 9.75525 10.5865 9.86708 10.9362 10.1424C11.2859 10.3961 11.4909 10.7933 11.5271 11.2119L12.8416 17.6967L12.9501 18.1382L13.2636 17.5418C14.279 15.1639 15.2839 12.782 16.2784 10.3961C16.4473 9.97604 16.6402 9.77819 17.1588 9.79969C18.0994 9.84414 19.04 9.81116 20.1012 9.81116L18.5938 13.2091C17.3396 16.0092 16.0614 18.8107 14.8313 21.6222C14.7784 21.8141 14.6499 21.9794 14.4726 22.0839C14.2917 22.1901 14.0762 22.2299 13.8666 22.1957C12.926 22.1627 11.9854 22.1957 10.9724 22.1957L9.81472 18.0709C9.29618 16.2185 8.76558 14.3661 8.29527 12.5023C8.23422 12.1523 8.07069 11.8259 7.82345 11.5603C7.57132 11.2896 7.24679 11.089 6.88435 10.9797C5.95579 10.6714 5.01517 10.3961 4.08662 10.0979L4.0625 9.92156V9.91009ZM34.9219 10.1854L34.3672 12.6127C33.6075 12.4248 32.8477 12.2815 32.0639 12.1926C31.4258 12.1472 30.7848 12.2302 30.1827 12.4363C29.3385 12.7446 29.2903 13.4829 30.0138 13.9905C30.448 14.2772 30.9062 14.531 31.3765 14.7633L32.3895 15.3038C32.9759 15.612 33.4612 16.0579 33.7974 16.5941C34.1351 17.1318 34.3099 17.7397 34.3069 18.3576C34.3069 19.6379 33.5833 20.8179 32.3895 21.4243C30.6951 22.2975 28.739 22.5968 26.8423 22.2731C26.2274 22.1959 25.6217 22.0629 25.0334 21.876C24.9319 21.8241 24.8455 21.7493 24.7817 21.658C24.7186 21.5682 24.6807 21.4646 24.6716 21.357C24.7922 20.6086 24.9972 19.8802 25.154 19.2064C26.2031 19.4171 27.2161 19.6709 28.2532 19.7928C28.823 19.8415 29.3988 19.7641 29.9294 19.572C30.1442 19.5277 30.3395 19.4216 30.4887 19.268C30.6349 19.1178 30.7264 18.9268 30.7494 18.7232C30.7818 18.5219 30.7459 18.316 30.6469 18.1354C30.5456 17.9524 30.3878 17.8033 30.1947 17.7081C29.8505 17.4881 29.492 17.2889 29.1215 17.1117C28.5306 16.825 27.9638 16.4952 27.4091 16.1411C26.9989 15.867 26.6563 15.5113 26.4051 15.0987C26.157 14.692 26.0085 14.2372 25.9707 13.7683C25.9328 13.2994 26.0066 12.8285 26.1866 12.3904C26.3659 11.9503 26.6463 11.5531 27.0111 11.2234C27.8135 10.4584 28.8459 9.94939 29.9656 9.76672C31.6254 9.4454 33.3476 9.59087 34.9219 10.1854ZM22.1874 22.1627H18.7747L21.5965 9.85561H24.9852L22.1874 22.1627ZM41.3253 13.3854L42.3142 17.797H39.4441L41.1686 13.3525L41.3374 13.3854H41.3253Z" fill="white"/>
</g>
<defs>
<clipPath id="clip0_120_138">
<rect width="52" height="32" rx="4" fill="white"/>
</clipPath>
</defs>
</svg>
