<svg width="17" height="20" viewBox="0 0 17 20" fill="none" xmlns="http://www.w3.org/2000/svg">
<path d="M8.51568 19.9913H3.29863C2.81837 20.0125 2.3394 19.9267 1.89631 19.7399C1.45322 19.5531 1.05707 19.2701 0.736481 18.9113C0.135653 18.0539 -0.111467 16.9972 0.0466714 15.9617L1.14805 6.72378C1.16097 6.60368 1.21792 6.49266 1.30787 6.41221C1.39783 6.33176 1.51438 6.28761 1.63497 6.2883H15.3558C15.4764 6.28761 15.593 6.33176 15.6829 6.41221C15.7729 6.49266 15.8298 6.60368 15.8427 6.72378L16.9557 16.0139C17.1088 17.0346 16.8616 18.075 16.2659 18.9171C15.9471 19.275 15.5529 19.5575 15.1118 19.7443C14.6708 19.9311 14.1938 20.0174 13.7153 19.9971L8.51568 19.9913ZM2.07552 7.27538L1.01472 16.1068C0.892507 16.8667 1.06236 17.6448 1.49005 18.2842C1.72142 18.5283 2.003 18.7192 2.31528 18.8435C2.62756 18.9678 2.96309 19.0226 3.29863 19.0042H13.7327C14.0664 19.0209 14.3997 18.9653 14.7098 18.841C15.02 18.7167 15.2996 18.5268 15.5297 18.2842C15.9535 17.6496 16.1251 16.8792 16.0108 16.1243L14.9211 7.27538H2.07552ZM12.5444 4.88316C12.4137 4.88316 12.2884 4.83117 12.196 4.73861C12.1036 4.64605 12.0517 4.52052 12.0517 4.38963C12.0146 3.46976 11.6237 2.59992 10.9608 1.96221C10.2979 1.32451 9.41448 0.968374 8.49539 0.968374C7.5763 0.968374 6.69284 1.32451 6.02996 1.96221C5.36709 2.59992 4.97619 3.46976 4.9391 4.38963C4.9391 4.52052 4.88719 4.64605 4.79479 4.73861C4.70239 4.83117 4.57706 4.88316 4.44638 4.88316C4.3157 4.88316 4.19038 4.83117 4.09798 4.73861C4.00557 4.64605 3.95366 4.52052 3.95366 4.38963C3.9957 3.21121 4.4926 2.09511 5.33975 1.27634C6.1869 0.45756 7.31818 0 8.49539 0C9.6726 0 10.8039 0.45756 11.651 1.27634C12.4982 2.09511 12.9951 3.21121 13.0371 4.38963C13.0371 4.52052 12.9852 4.64605 12.8928 4.73861C12.8004 4.83117 12.6751 4.88316 12.5444 4.88316Z" fill="white"/>
</svg>
