<svg width="24" height="20" viewBox="0 0 24 20" fill="none" xmlns="http://www.w3.org/2000/svg">
<path d="M12.0002 20C11.9303 19.9992 11.8611 19.9865 11.7954 19.9623C1.24471 15.5689 0.0406868 9.70058 0.00344913 7.40972C-0.039914 5.99456 0.326396 4.5974 1.05739 3.38987C1.78837 2.18234 2.85221 1.21702 4.11821 0.612479C6.65037 -0.561191 9.56732 -0.0151521 12.0002 1.96816C14.433 -0.0465337 17.35 -0.542362 19.8822 0.612479C21.1462 1.21616 22.2087 2.17953 22.9395 3.38459C23.6704 4.58966 24.0378 5.98411 23.9969 7.39717C23.9597 9.70058 22.7557 15.5564 12.205 19.9498C12.1401 19.9782 12.0708 19.9952 12.0002 20ZM6.94207 1.05182C6.11721 1.05017 5.30187 1.23007 4.55265 1.57903C3.47444 2.09462 2.56872 2.91761 1.94685 3.94681C1.32497 4.97601 1.01405 6.16655 1.05231 7.37206C1.08955 9.44952 2.2315 14.7153 11.994 18.8828C21.7565 14.7153 22.8984 9.46835 22.9356 7.37206C22.975 6.16792 22.6659 4.97835 22.0463 3.94929C21.4267 2.92024 20.5236 2.09646 19.4477 1.57903C17.1514 0.518334 14.5696 1.0581 12.3601 3.06024C12.2626 3.1476 12.1367 3.19583 12.0064 3.19583C11.8761 3.19583 11.7502 3.1476 11.6526 3.06024C10.3845 1.82096 8.70477 1.10478 6.94207 1.05182Z" fill="white"/>
</svg>
