<svg width="18" height="20" viewBox="0 0 18 20" fill="none" xmlns="http://www.w3.org/2000/svg">
<path d="M9 9.31412C8.09258 9.31412 7.20553 9.04099 6.45104 8.52927C5.69654 8.01754 5.10849 7.29021 4.76123 6.43924C4.41397 5.58828 4.32312 4.6519 4.50014 3.74852C4.67717 2.84513 5.11414 2.01533 5.75579 1.36402C6.39743 0.712722 7.21494 0.26918 8.10492 0.0894862C8.99491 -0.0902075 9.91741 0.00201783 10.7558 0.3545C11.5941 0.706982 12.3107 1.30389 12.8148 2.06974C13.3189 2.83559 13.588 3.73598 13.588 4.65706C13.588 5.26864 13.4693 5.87422 13.2388 6.43924C13.0082 7.00426 12.6703 7.51765 12.2442 7.9501C11.8182 8.38255 11.3124 8.72559 10.7558 8.95963C10.1991 9.19366 9.60251 9.31412 9 9.31412ZM9 0.979829C8.28349 0.979829 7.58308 1.1955 6.98733 1.59955C6.39158 2.00361 5.92724 2.57792 5.65305 3.24985C5.37886 3.92177 5.30711 4.66114 5.4469 5.37445C5.58668 6.08777 5.93171 6.74299 6.43836 7.25726C6.945 7.77153 7.59051 8.12175 8.29324 8.26364C8.99598 8.40553 9.72439 8.3327 10.3864 8.05438C11.0483 7.77606 11.6141 7.30474 12.0122 6.70002C12.4102 6.09531 12.6227 5.38435 12.6227 4.65706C12.6227 3.6818 12.241 2.74648 11.5616 2.05687C10.8823 1.36725 9.9608 0.979829 9 0.979829ZM17.5174 20C17.3893 20 17.2666 19.9484 17.1761 19.8565C17.0856 19.7646 17.0347 19.64 17.0347 19.5101C17.0347 17.3471 16.1882 15.2727 14.6814 13.7432C13.1746 12.2137 11.1309 11.3545 9 11.3545C6.86907 11.3545 4.82541 12.2137 3.31861 13.7432C1.81181 15.2727 0.9653 17.3471 0.9653 19.5101C0.9653 19.64 0.914449 19.7646 0.823935 19.8565C0.73342 19.9484 0.610656 20 0.48265 20C0.354643 20 0.231879 19.9484 0.141365 19.8565C0.0508504 19.7646 3.8149e-09 19.64 0 19.5101C5.03012e-08 17.0872 0.948211 14.7636 2.63604 13.0504C4.32387 11.3371 6.61305 10.3746 9 10.3746C11.3869 10.3746 13.6761 11.3371 15.364 13.0504C17.0518 14.7636 18 17.0872 18 19.5101C18 19.64 17.9492 19.7646 17.8586 19.8565C17.7681 19.9484 17.6454 20 17.5174 20Z" fill="white"/>
</svg>
