<svg width="21" height="40" viewBox="0 0 21 40" fill="none" xmlns="http://www.w3.org/2000/svg">
<path d="M13.1844 2.58331C13.3381 2.58331 13.4265 2.58977 13.4265 2.58977H16.7997L16.7823 6.46467H13.4318C11.5879 6.46467 11.6306 8.03913 11.6306 8.03913V14.1821H18.1546L17.244 18.0519H11.6093V37.4173H7.73824L7.73565 18.0519H2.59301L2.58268 14.1821H7.73759V8.16054C7.73816 2.91005 12.0988 2.58327 13.1844 2.58327V2.58331ZM16.7997 2.58973H16.8061H16.7997ZM13.1844 0C12.2557 0 10.4409 0.153745 8.72173 1.18963C7.09428 2.16869 5.15489 4.17391 5.15489 8.15994V11.5982H2.58325C1.89674 11.5982 1.23865 11.8721 0.753 12.3577C0.513047 12.5987 0.323014 12.8846 0.193801 13.1991C0.0645866 13.5136 -0.00126624 13.8505 1.84401e-05 14.1906L0.0103514 18.0603C0.0155179 19.483 1.17088 20.6345 2.59362 20.6345H5.15299L5.15557 37.4167C5.15557 38.8433 6.31227 40 7.73884 40H11.6099C13.0365 40 14.1932 38.8433 14.1932 37.4167V20.6345H17.2447C18.391 20.6345 19.4004 19.8789 19.7233 18.7791L20.6339 14.9094C20.8631 14.1286 20.7107 13.2845 20.2225 12.6342C19.9822 12.3126 19.6703 12.0514 19.3114 11.8716C18.9525 11.6918 18.5566 11.5982 18.1552 11.5983H14.2144V9.04923L16.7828 9.04794C18.2043 9.04794 19.3596 7.89903 19.3661 6.47629L19.3835 2.73249C19.3861 2.68496 19.3874 2.63737 19.3874 2.58977C19.3874 1.16316 18.2333 0.0064985 16.8068 0.0064985H13.4995C13.4253 0.0026236 13.3181 4.03636e-05 13.1844 0V0Z" fill="white"/>
</svg>
