<svg width="40" height="40" viewBox="0 0 40 40" fill="none" xmlns="http://www.w3.org/2000/svg">
<path d="M20 10.4C18.1013 10.4 16.2452 10.963 14.6665 12.0179C13.0878 13.0728 11.8574 14.5721 11.1308 16.3262C10.4042 18.0804 10.214 20.0106 10.5845 21.8729C10.9549 23.7351 11.8692 25.4456 13.2118 26.7882C14.5544 28.1308 16.2649 29.0451 18.1271 29.4155C19.9894 29.786 21.9196 29.5958 23.6738 28.8692C25.4279 28.1426 26.9272 26.9122 27.9821 25.3335C29.037 23.7548 29.6 21.8987 29.6 20C29.6 17.4539 28.5886 15.0121 26.7882 13.2118C24.9879 11.4114 22.5461 10.4 20 10.4ZM20 26.4C18.7342 26.4 17.4968 26.0246 16.4444 25.3214C15.3919 24.6182 14.5716 23.6186 14.0872 22.4492C13.6028 21.2797 13.476 19.9929 13.723 18.7514C13.9699 17.5099 14.5795 16.3696 15.4745 15.4745C16.3696 14.5795 17.5099 13.9699 18.7514 13.723C19.9929 13.476 21.2797 13.6028 22.4492 14.0872C23.6186 14.5716 24.6182 15.3919 25.3214 16.4444C26.0246 17.4968 26.4 18.7342 26.4 20C26.3947 21.6958 25.7187 23.3206 24.5197 24.5197C23.3206 25.7187 21.6958 26.3947 20 26.4ZM28.8 0H11.2C8.22958 0 5.38081 1.18 3.2804 3.2804C1.18 5.38081 0 8.22958 0 11.2V28.8C0 31.7704 1.18 34.6192 3.2804 36.7196C5.38081 38.82 8.22958 40 11.2 40H28.8C31.7704 40 34.6192 38.82 36.7196 36.7196C38.82 34.6192 40 31.7704 40 28.8V11.2C40 8.22958 38.82 5.38081 36.7196 3.2804C34.6192 1.18 31.7704 0 28.8 0V0ZM36.8 28.8C36.8 29.8506 36.5931 30.8909 36.191 31.8615C35.789 32.8321 35.1997 33.714 34.4569 34.4569C33.714 35.1997 32.8321 35.789 31.8615 36.191C30.8909 36.5931 29.8506 36.8 28.8 36.8H11.2C10.1494 36.8 9.10914 36.5931 8.13853 36.191C7.16793 35.789 6.28601 35.1997 5.54315 34.4569C4.80028 33.714 4.211 32.8321 3.80896 31.8615C3.40693 30.8909 3.2 29.8506 3.2 28.8V11.2C3.2 9.07827 4.04285 7.04344 5.54315 5.54315C7.04344 4.04285 9.07827 3.2 11.2 3.2H28.8C29.8506 3.2 30.8909 3.40693 31.8615 3.80896C32.8321 4.211 33.714 4.80028 34.4569 5.54315C35.1997 6.28601 35.789 7.16793 36.191 8.13853C36.5931 9.10914 36.8 10.1494 36.8 11.2V28.8ZM32.8 9.6C32.8 10.0747 32.6592 10.5387 32.3955 10.9334C32.1318 11.328 31.757 11.6357 31.3184 11.8173C30.8799 11.999 30.3973 12.0465 29.9318 11.9539C29.4662 11.8613 29.0386 11.6327 28.7029 11.2971C28.3673 10.9614 28.1387 10.5338 28.0461 10.0682C27.9535 9.60266 28.001 9.1201 28.1827 8.68156C28.3643 8.24302 28.672 7.86819 29.0666 7.60447C29.4613 7.34076 29.9253 7.2 30.4 7.2C31.0365 7.2 31.647 7.45286 32.0971 7.90294C32.5471 8.35303 32.8 8.96348 32.8 9.6Z" fill="white"/>
</svg>
