<svg width="42" height="40" viewBox="0 0 42 40" fill="none" xmlns="http://www.w3.org/2000/svg">
<path d="M40.6569 39.9917H32.1805C31.5809 39.9917 31.0964 39.5071 31.0964 38.9075V25.2567C31.0964 20.575 28.6816 20.575 27.8849 20.575C25.7411 20.575 24.8294 22.267 24.5337 22.998C24.3941 23.3266 24.3284 23.8851 24.3284 24.6654V38.9159C24.3284 39.5154 23.8438 40 23.2443 40H14.7597C14.4722 40 14.193 39.885 13.9876 39.6797C13.7823 39.4745 13.6673 39.1951 13.6755 38.9076C13.6755 38.6776 13.7905 15.7866 13.6755 13.4458C13.6591 13.1501 13.7659 12.8626 13.9712 12.649C14.1766 12.4355 14.4558 12.3123 14.7597 12.3123H23.2443C23.8438 12.3123 24.3284 12.7968 24.3284 13.3964V14.0371C25.7576 12.764 27.8191 11.7126 30.891 11.7126C37.6836 11.7126 41.741 16.4107 41.741 24.2793V38.9075C41.741 39.5071 41.2564 39.9917 40.6569 39.9917ZM33.2647 37.8234L39.5809 37.8232V24.2792C39.5809 17.6673 36.4187 13.8809 30.8992 13.8809C27.2114 13.8809 25.4208 15.7207 24.2956 17.4045C24.1642 17.848 23.7453 18.1766 23.2525 18.1766H23.195C22.8007 18.1766 22.4393 17.963 22.2505 17.6181C22.1026 17.347 22.0697 17.0349 22.1683 16.7474V14.4723H15.8686C15.926 18.998 15.8686 33.6427 15.8521 37.8152H22.1601V24.6571C22.1601 23.5647 22.2751 22.7762 22.5215 22.1766C23.4742 19.8194 25.4783 18.3984 27.8767 18.3984C31.2935 18.3984 33.2565 20.8954 33.2565 25.2485V37.8234L33.2647 37.8234ZM10.0698 39.9915H1.58525C0.985662 39.9915 0.501103 39.507 0.501103 38.9074V13.3963C0.501103 12.7967 0.985662 12.3121 1.58525 12.3121H10.0698C10.6694 12.3121 11.154 12.7967 11.154 13.3963V38.9074C11.154 39.507 10.6694 39.9915 10.0698 39.9915ZM2.66948 37.8233H8.98562V14.4804H2.66952L2.66948 37.8233ZM5.83162 10.9979L5.77409 10.9979C2.43119 10.9979 0 8.68169 0 5.49485C0 2.31625 2.47226 0 5.88908 0C9.2484 0 11.6468 2.25048 11.7125 5.4702C11.7125 8.68169 9.24025 10.9979 5.83162 10.9979ZM5.88908 2.17661C3.66321 2.17661 2.16838 3.51542 2.16838 5.50313C2.16838 7.45791 3.64683 8.82956 5.77413 8.82956H5.83158C8.04926 8.82956 9.5441 7.49075 9.5441 5.50308C9.50302 3.49077 8.06568 2.17661 5.88908 2.17661Z" fill="white"/>
</svg>
