<svg width="40" height="40" viewBox="0 0 40 40" fill="none" xmlns="http://www.w3.org/2000/svg">
<path d="M20 0C8.97 0 0 8.9675 0 20C0 31.0325 8.9675 40 20 40C31.0325 40 40 31.03 40 20C40 8.97 31.03 0 20 0ZM20 37.3275C18.2602 37.3281 16.5301 37.0677 14.8675 36.555C15.57 35.4075 16.6325 33.515 17.0225 32.015C17.2325 31.2025 18.1 27.8975 18.1 27.8975C18.6625 28.975 20.32 29.89 22.0675 29.89C27.295 29.89 31.06 25.085 31.06 19.1075C31.06 13.38 26.3875 9.1 20.38 9.1C12.9025 9.1 8.935 14.1225 8.935 19.585C8.935 22.125 10.2875 25.2875 12.45 26.295C12.7775 26.4525 12.95 26.38 13.0275 26.06C13.0825 25.8175 13.38 24.645 13.5125 24.0925C13.5367 24.006 13.5386 23.9148 13.518 23.8274C13.4975 23.74 13.4552 23.6592 13.395 23.5925C12.6775 22.725 12.105 21.1225 12.105 19.64C12.105 15.82 14.995 12.1175 19.925 12.1175C24.1825 12.1175 27.16 15.015 27.16 19.165C27.16 23.8525 24.7925 27.1025 21.715 27.1025C20.0125 27.1025 18.7375 25.695 19.1525 23.97C19.645 21.9075 20.59 19.6875 20.59 18.205C20.59 16.8775 19.88 15.7675 18.395 15.7675C16.6525 15.7675 15.2625 17.565 15.2625 19.9775C15.2625 21.5075 15.7775 22.5475 15.7775 22.5475C15.7775 22.5475 14.0575 29.805 13.745 31.1575C13.3925 32.6575 13.535 34.76 13.6825 36.1275C10.4366 34.861 7.6485 32.6442 5.68317 29.7672C3.71784 26.8901 2.66677 23.4868 2.6675 20.0025C2.66799 16.5762 3.68445 13.2269 5.58833 10.3782C7.49222 7.52949 10.198 5.30929 13.3637 3.99831C16.5293 2.68733 20.0126 2.34445 23.3731 3.01302C26.7335 3.68159 29.8203 5.33158 32.2431 7.75438C34.6659 10.1772 36.3159 13.264 36.9845 16.6244C37.6531 19.9849 37.3102 23.4682 35.9992 26.6338C34.6882 29.7995 32.468 32.5053 29.6193 34.4092C26.7706 36.3131 23.4213 37.3295 19.995 37.33L20 37.3275Z" fill="white"/>
</svg>
