<svg width="40" height="40" viewBox="0 0 40 40" fill="none" xmlns="http://www.w3.org/2000/svg">
<path d="M37.7342 10.5656C35.3323 10.5656 33.0288 9.61144 31.3305 7.91307C29.6321 6.2147 28.678 3.91122 28.678 1.50937C28.678 1.10906 28.519 0.725144 28.2359 0.442083C27.9528 0.159022 27.5689 0 27.1686 0H19.6218C19.2215 0 18.8375 0.159022 18.5545 0.442083C18.2714 0.725144 18.1124 1.10906 18.1124 1.50937V25.6592C18.1109 26.3339 17.9286 26.9959 17.5844 27.5761C17.2402 28.1564 16.7467 28.6338 16.1553 28.9586C15.5639 29.2833 14.8963 29.4436 14.222 29.4226C13.5476 29.4017 12.8912 29.2004 12.3211 28.8396C11.751 28.4788 11.288 27.9717 10.9805 27.3712C10.6729 26.7707 10.532 26.0987 10.5723 25.4253C10.6127 24.7518 10.8329 24.1015 11.21 23.542C11.5871 22.9825 12.1073 22.5344 12.7164 22.2443C12.9761 22.1249 13.196 21.9334 13.3498 21.6925C13.5037 21.4517 13.5851 21.1717 13.5843 20.8859V13.0372C13.588 12.8134 13.5407 12.5918 13.4459 12.3891C13.3511 12.1864 13.2113 12.0079 13.0372 11.8674C12.8682 11.7282 12.671 11.6274 12.4593 11.572C12.2475 11.5167 12.0262 11.508 11.8108 11.5467C9.12561 12.0276 6.63334 13.2646 4.62651 15.1123C2.61968 16.9601 1.18156 19.342 0.480963 21.9784C-0.219638 24.6148 -0.153653 27.3964 0.671174 29.9966C1.496 32.5968 3.04544 34.9078 5.13763 36.6583C7.22982 38.4089 9.77794 39.5262 12.4829 39.8794C15.1879 40.2325 17.9375 39.8066 20.4089 38.6519C22.8804 37.4971 24.9711 35.6613 26.4358 33.3599C27.9005 31.0586 28.6783 28.3872 28.678 25.6592V18.9237C31.4735 20.3819 34.5812 21.1394 37.7342 21.1311C38.1345 21.1311 38.5184 20.9721 38.8015 20.6891C39.0845 20.406 39.2435 20.0221 39.2435 19.6218V12.0749C39.2435 11.6746 39.0845 11.2907 38.8015 11.0077C38.5184 10.7246 38.1345 10.5656 37.7342 10.5656ZM36.2248 18.0369C33.2785 17.7754 30.4568 16.7262 28.0554 14.9993C27.8282 14.8425 27.5628 14.7501 27.2873 14.732C27.0118 14.714 26.7366 14.7708 26.4909 14.8966C26.2451 15.0224 26.0381 15.2123 25.8916 15.4464C25.7452 15.6804 25.6649 15.9497 25.6592 16.2257V25.6592C25.6582 27.7344 25.0867 29.7692 24.0073 31.5415C22.928 33.3138 21.3822 34.7554 19.539 35.7086C17.6957 36.6618 15.626 37.09 13.5558 36.9464C11.4857 36.8029 9.49482 36.093 7.80081 34.8945C6.10681 33.696 4.77482 32.0549 3.95042 30.1506C3.12602 28.2463 2.84092 26.152 3.12628 24.0966C3.41164 22.0412 4.25648 20.1038 5.56847 18.4961C6.88047 16.8883 8.60913 15.6722 10.5656 14.9805V20.018C9.58966 20.67 8.79937 21.5639 8.27177 22.6123C7.74416 23.6607 7.49725 24.828 7.55509 26.0003C7.61294 27.1725 7.97357 28.3098 8.60184 29.3012C9.2301 30.2926 10.1045 31.1043 11.1399 31.6571C12.1753 32.2099 13.3362 32.485 14.5096 32.4555C15.6829 32.426 16.8286 32.093 17.8349 31.4889C18.8412 30.8848 19.6738 30.0303 20.2514 29.0086C20.8291 27.9869 21.1322 26.8329 21.1311 25.6592V3.01873H25.7536C26.0918 5.67775 27.3038 8.14907 29.1991 10.0444C31.0945 11.9398 33.5658 13.1518 36.2248 13.49V18.0369Z" fill="white"/>
</svg>
